<svg version="1.2" xmlns="http://www.w3.org/2000/svg" viewBox="0 0 800 800" width="800" height="800">
	<title>Proyecto nuevo</title>
	<style>
		.s0 { fill: #3c3c3c;stroke: #313131;stroke-width: 33 } 
		.s1 { fill: #b0d89c } 
	</style>
	<path id="Forma 1" class="s0" d="m17 294c0-32.6 26.4-59 59-59h648c32.6 0 59 26.4 59 59v211c0 32.6-26.4 59-59 59h-648c-32.6 0-59-26.4-59-59z"/>
	<path id="&lt;código&gt;" fill-rule="evenodd" class="s1" d="m131.7 374.6l-60.2 24.7 60.2 24.8-4.5 13-73.2-31v-13.6l73.2-31zm60.9 77.5q-10.7 0-18.8-3.4-8-3.4-13.6-9.5-5.4-6.1-8.1-14.4-2.7-8.5-2.7-18.7 0-10.1 2.9-18.6 3-8.5 8.4-14.6 5.5-6.2 13.3-9.6 7.9-3.6 17.6-3.6 5.9 0 11.8 1 6 1 11.4 3.2l-3.6 13.4q-3.5-1.7-8.3-2.7-4.5-1-9.8-1-13.2 0-20.3 8.3-7 8.3-7 24.2 0 7.2 1.5 13.1 1.7 5.9 5.1 10.2 3.6 4.2 9 6.6 5.4 2.2 13.2 2.2 6.3 0 11.4-1.2 5.1-1.2 8-2.5l2.2 13.2q-1.4 0.8-3.9 1.7-2.6 0.6-5.8 1.3-3.2 0.5-7 1-3.5 0.4-6.9 0.4zm116.1-46.1q0 10.5-3 19-3.1 8.4-8.7 14.5-5.4 6.1-13 9.5-7.7 3.3-16.7 3.3-8.9 0-16.6-3.3-7.6-3.4-13.2-9.5-5.4-6.1-8.5-14.5-3-8.5-3-19 0-10.4 3-18.8 3.1-8.7 8.5-14.8 5.6-6.1 13.2-9.3 7.7-3.4 16.6-3.4 9 0 16.7 3.4 7.6 3.2 13 9.3 5.6 6.1 8.7 14.8 3 8.4 3 18.8zm-16.4 0q0-14.9-6.8-23.6-6.6-8.8-18.2-8.8-11.5 0-18.3 8.8-6.6 8.7-6.6 23.6 0 14.9 6.6 23.7 6.8 8.7 18.3 8.7 11.6 0 18.2-8.7 6.8-8.8 6.8-23.7zm-14.6-87.5l10.2 10-23.9 23.2-8-7.1zm110.2 47.3v-44.6l15.7-2.7v129q-5.4 1.5-13.9 3.1-8.4 1.5-19.5 1.5-10.1 0-18.3-3.2-8.1-3.3-13.9-9.2-5.7-5.9-9-14.4-3-8.6-3-19.3 0-10.2 2.5-18.7 2.8-8.4 7.8-14.5 5.1-6.1 12.4-9.5 7.5-3.4 17-3.4 7.6 0 13.4 2 5.9 2 8.8 3.9zm0 70.5v-55.7q-2.9-2.4-8.3-4.6-5.5-2.2-11.9-2.2-6.8 0-11.7 2.5-4.7 2.4-7.8 6.8-3 4.2-4.4 10.2-1.4 5.9-1.4 12.7 0 15.4 7.7 23.9 7.6 8.3 20.3 8.3 6.4 0 10.7-0.5 4.4-0.7 6.8-1.4zm58.6-74.4v88.2h-15.7v-88.2zm-8-15.9q-4.3 0-7.3-2.7-2.9-2.9-2.9-7.7 0-4.7 2.9-7.4 3-2.9 7.3-2.9 4.2 0 7.1 2.9 3.1 2.7 3.1 7.4 0 4.8-3.1 7.7-2.9 2.7-7.1 2.7zm90.3 99v-3.8q-2 1.4-7.9 3.6-5.8 2-13.6 2-8 0-15.1-2.5-6.9-2.6-12.2-7.8-5.2-5.4-8.3-13.4-3-8-3-19 0-9.6 2.8-17.6 2.9-8.1 8.3-13.9 5.6-5.9 13.6-9.2 8-3.4 18-3.4 11 0 19.1 1.7 8.3 1.6 13.9 2.9v78.7q0 20.3-10.5 29.5-10.5 9.1-31.9 9.1-8.3 0-15.7-1.3-7.3-1.4-12.7-3.3l2.9-13.7q4.7 1.9 11.5 3.4 6.9 1.4 14.4 1.4 14.1 0 20.2-5.6 6.2-5.6 6.2-17.8zm-0.1-17.7v-51.5q-2.4-0.7-6.5-1.2-3.9-0.7-10.7-0.7-12.7 0-19.6 8.4-6.8 8.3-6.8 22 0 7.6 1.9 13 2 5.5 5.2 9 3.4 3.6 7.6 5.3 4.5 1.7 9 1.7 6.3 0 11.6-1.7 5.2-1.9 8.3-4.3zm120.6-21.3q0 10.5-3 19-3.1 8.4-8.6 14.5-5.5 6.1-13.1 9.5-7.6 3.3-16.6 3.3-9 0-16.6-3.3-7.7-3.4-13.2-9.5-5.5-6.1-8.5-14.5-3.1-8.5-3.1-19 0-10.4 3.1-18.8 3-8.7 8.5-14.8 5.5-6.1 13.2-9.3 7.6-3.4 16.6-3.4 9 0 16.6 3.4 7.6 3.2 13.1 9.3 5.5 6.1 8.6 14.8 3 8.4 3 18.8zm-16.4 0q0-14.9-6.8-23.6-6.6-8.8-18.1-8.8-11.5 0-18.3 8.8-6.6 8.7-6.6 23.6 0 14.9 6.6 23.7 6.8 8.7 18.3 8.7 11.5 0 18.1-8.7 6.8-8.8 6.8-23.7zm94.2-6.6l-60.1-24.8 4.4-13 73.2 31v13.6l-73.2 31-4.4-13.1z"/>
</svg>