<svg version="1.2" xmlns="http://www.w3.org/2000/svg" viewBox="0 0 619 464" width="619" height="464">
	<title>Proyecto nuevo</title>
	<style>
		.s0 { fill: #23a55a } 
		.s1 { fill: #ffffff } 
	</style>
	<path id="Forma 1" class="s0" d="m11 159c0-23.7 19.3-43 43-43h510c23.7 0 43 19.3 43 43v145.3c0 23.8-19.3 43-43 43h-510c-23.7 0-43-19.2-43-43z"/>
	<path id="¡Invitame!" fill-rule="evenodd" class="s1" d="m113.2 221.1q-2.7 0-4.5-1.8-1.6-1.8-1.6-4.5 0-2.9 1.6-4.5 1.8-1.8 4.5-1.8 2.9 0 4.6 1.8 1.7 1.6 1.7 4.5 0 2.7-1.7 4.5-1.8 1.8-4.6 1.8zm3.6 10l1.3 43.6h-9.7l1.2-43.6zm28.1-42.8v67.7h-9.2v-67.7zm23.9 67.7h-8.7v-46.1h7.7l1 6.1q2.3-3.3 5.8-5.3 3.6-2.2 8.2-2.2 7.4 0 11.2 4.2 3.9 4.2 3.9 11.9v31.4h-8.8v-30.7q0-4.5-2.1-7-2.2-2.4-6.6-2.4-3.5 0-6.4 1.8-2.8 1.9-5.2 5.7zm79.2-46.1l-17 46.1h-9.9l-16.9-46.1h9.3l12.6 36.7 12.7-36.7zm13.4-10.2q-2.4 0-4-1.6-1.6-1.6-1.6-4 0-2.6 1.6-4.1 1.6-1.5 4-1.5 2.6 0 4.1 1.5 1.5 1.5 1.5 4.1 0 2.4-1.5 4-1.5 1.6-4.1 1.6zm4.5 10.2v46.1h-8.8v-46.1zm32.3 47.5q-13.2 0-13.2-14.5v-25.6h-9.4v-7.4h9.4v-13.1l8.7-2.8v15.9h13.8v7.4h-13.8v25.3q0 7.3 6.6 7.3 2 0 3.5-0.5 1.5-0.5 3.7-1.6v7.2q-4 2.4-9.3 2.4zm32.9 0q-6.1 0-10.3-3.5-4.2-3.6-4.2-10.2 0-8.1 7.4-11.9 7.5-3.9 21.6-4.1v-2.2q0-4.6-2.6-7.2-2.7-2.5-7.5-2.5-3.4 0-6.9 1.5-3.4 1.5-6.2 4.4l-4.6-5.7q3.1-3.5 7.9-5.4 4.8-2.1 10.1-2.1 9.1 0 13.9 4.3 4.7 4.3 4.7 12.7v30.5h-7.9l-0.9-6.3q-2 3.2-6 5.4-3.8 2.3-8.5 2.3zm2-7.2q7.4 0 12.5-7.5v-8.8q-10.5 0.3-15.5 2.7-4.9 2.2-4.9 6.8 0 3.4 2.1 5.2 2.1 1.6 5.8 1.6zm86.2-41.7q6.6 0 10.6 4.2 4.1 4.1 4.1 11.4v31.9h-8.8v-31q0-4.2-2.4-6.7-2.4-2.4-6.5-2.4-6.4 0-10.6 7.1v33h-8.7v-31q0-4.3-2.5-6.7-2.4-2.4-6.5-2.4-6.7 0-10.6 7.1v33h-8.7v-46.1h7.7l1 5.8q4.6-7.2 13.5-7.2 5 0 8.4 2.3 3.5 2.1 5 5.8 2.3-3.6 6.2-5.8 3.9-2.3 8.8-2.3zm48.9 48.9q-6.9 0-12-3.2-5-3.1-7.8-8.6-2.6-5.6-2.6-12.8 0-7.1 2.7-12.6 2.8-5.6 7.7-8.7 4.9-3 11.2-3 9.4 0 14.8 6.1 5.4 6 5.4 16.6 0 1.3-0.2 3.8h-33q0.6 7 4.3 11.1 3.8 4 9.8 4 8.1 0 13-6.8l5.7 5q-3.6 4.9-8 7-4.4 2.1-11 2.1zm-13.5-29.2h24.8q-0.4-6.3-3.7-9.4-3.3-3.1-8.6-3.1-5.1 0-8.4 3.2-3.2 3.2-4.1 9.3zm54.3-39.9l-1.3 45.8h-7.2l-1.2-45.8zm-4.8 68.5q-2.7 0-4.5-1.8-1.7-1.7-1.7-4.5 0-2.7 1.7-4.5 1.8-1.8 4.5-1.8 2.8 0 4.6 1.8 1.7 1.8 1.7 4.5 0 2.8-1.7 4.5-1.8 1.8-4.6 1.8z"/>
</svg>