<svg version="1.2" xmlns="http://www.w3.org/2000/svg" viewBox="0 0 1407 289" width="1407" height="289">
	<title>willsvg-svg</title>
	<style>
		.s0 { fill: #ffffff } 
		.s1 { fill: #dd2e44 } 
		.s2 { fill: #3c3c3c;stroke: #313131;stroke-width: 6.9 } 
		.s3 { fill: #b0d89c } 
	</style>
	<path id="WILL(IA)M" fill-rule="evenodd" class="s0" d="m105.7 84.8c-1.6 11-3.8 25.7-6 40.4-2.1 14.7-4.2 29.3-5.7 40.4-1.6 11-2.6 18.3-2.6 18.3 0 0-2.8-6.7-7.2-16.8-4.3-10.1-10.1-23.6-15.9-37-5.9-13.5-11.7-26.9-16.1-37-4.5-10-7.5-16.7-7.5-16.7l-41.5 7.1c0 0 5 11 12.5 27.5 3.8 8.3 8.1 18 12.7 28.3 4.6 10.4 9.5 21.4 14.4 32.5 4.9 11 9.7 22.1 14.2 32.5 4.6 10.4 8.8 20.1 12.3 28.4 7.2 16.6 11.9 27.7 11.9 27.7l39.7-6.2c0 0 1.3-9.2 3.2-23.1 2-13.8 4.7-32.3 7.4-50.8 2.8-18.4 5.6-36.9 7.7-50.7 2.1-13.9 3.6-23.1 3.6-23.1 0 0 3.5 8.5 8.8 21.3 5.2 12.9 12.1 30 19 47.1 6.9 17.2 13.7 34.3 18.8 47.2 5 12.9 8.4 21.5 8.4 21.5l39.8-4.8c0 0 2.1-12 5.1-30.1 1.6-9 3.4-19.6 5.4-30.9 2-11.2 4.2-23.3 6.4-35.3 2.1-12 4.3-24.1 6.4-35.4 2.1-11.2 4.1-21.8 5.8-30.8 3.5-18 5.8-30 5.8-30l-41.8 4.3c0 0-1.3 7.3-3.3 18.3-2 10.9-4.6 25.6-7.1 40.2-2.6 14.6-5.1 29.2-7 40.1-1.8 11-3.1 18.3-3.1 18.3 0 0-2.6-6.8-6.6-17.1-4.1-10.2-9.5-23.9-14.9-37.5-5.4-13.7-10.9-27.3-15-37.5-4.1-10.2-6.9-17-6.9-17l-58.3 8c0 0-1.1 7.4-2.8 18.4zm232.9 144c0 0-0.8-11.7-2-29.3-0.6-8.8-1.4-19-2.1-30-0.8-11-1.6-22.7-2.5-34.4-0.8-11.7-1.6-23.4-2.4-34.4-0.8-11-1.5-21.2-2.1-30-1.3-17.6-2.1-29.3-2.1-29.3l-41.8 3.8c0 0 1 11.7 2.4 29.2 0.7 8.8 1.5 19 2.4 30 0.9 11 1.8 22.7 2.8 34.4 0.9 11.7 1.9 23.4 2.8 34.3 0.8 11 1.7 21.2 2.4 30 1.4 17.6 2.3 29.3 2.3 29.3zm29-2.3c11-0.8 25.6-1.8 40.3-2.8 14.6-0.9 29.3-1.7 40.3-2.3 11-0.5 18.3-0.9 18.3-0.9l-1.4-34.8c0 0-19.4 0.9-38.9 2-19.5 1.1-39 2.4-39 2.4 0 0-0.5-9.5-1.4-23.8-0.8-14.4-1.9-33.5-3-52.5-1.1-19.1-2.2-38.2-3-52.5-0.9-14.4-1.4-23.9-1.4-23.9l-41.8 3.1c0 0 0.8 11.7 2 29.3 0.6 8.8 1.2 19 2 30 0.7 11 1.5 22.7 2.3 34.4 0.8 11.7 1.6 23.4 2.4 34.4 0.7 11 1.4 21.3 2 30 1.2 17.6 2 29.3 2 29.3 0 0 7.3-0.6 18.3-1.4zm127.9-7.1c11-0.4 25.6-0.9 40.3-1.3 14.7-0.3 29.3-0.6 40.3-0.7 11-0.2 18.4-0.2 18.4-0.2l-0.2-34.9c0 0-19.6 0.2-39.1 0.5-19.5 0.4-39 0.9-39 0.9 0 0-0.2-9.5-0.6-23.9-0.3-14.3-0.8-33.4-1.3-52.5-0.5-19.2-1-38.3-1.3-52.6-0.4-14.4-0.6-23.9-0.6-23.9l-41.9 1.5c0 0 0.4 11.7 1 29.3 0.3 8.8 0.7 19.1 1.1 30.1 0.4 11 0.8 22.7 1.2 34.5 0.4 11.7 0.8 23.5 1.2 34.5 0.4 11 0.8 21.2 1.1 30 0.6 17.6 1 29.4 1 29.4 0 0 7.4-0.3 18.4-0.7zm242.4-0.2c0 0 0.4-11.7 0.9-29.3 0.3-8.8 0.6-19.1 0.9-30.1 0.3-11 0.7-22.7 1.1-34.5 0.3-11.7 0.7-23.4 1-34.5 0.3-11 0.6-21.2 0.9-30 0.5-17.6 0.9-29.4 0.9-29.4l-41.9-1.2c0 0-0.2 11.7-0.6 29.3-0.2 8.8-0.4 19.1-0.6 30.1-0.2 11-0.4 22.8-0.7 34.5-0.2 11.8-0.5 23.5-0.7 34.5-0.2 11-0.4 21.3-0.6 30.1-0.3 17.6-0.6 29.3-0.6 29.3zm167.8 10.3c0 0-2.3-12-5.8-30-1.8-9-3.9-19.4-6.1-30.7-2.3-11.2-4.7-23.2-7.2-35.1-2.4-12-4.9-24-7.3-35.2-2.3-11.2-4.6-21.7-6.5-30.6-3.8-18-6.4-29.9-6.4-29.9l-58.6-3.7c0 0-3.9 11.6-9.6 28.9-2.8 8.7-6.1 18.8-9.7 29.6-3.5 10.9-7.2 22.5-10.9 34-3.7 11.6-7.4 23.2-10.8 34.1-3.4 10.9-6.6 21-9.3 29.7-5.4 17.4-8.9 29-8.9 29l40 1.8 14.9-46.2 52.6 3.3 9.7 47.8zm-81.1-118.8c5.1-15.1 10.2-30.2 10.2-30.2 0 0 3.4 15.6 6.8 31.2 3.4 15.7 6.8 31.3 6.8 31.3l-33.7-2.1c0 0 4.9-15.1 9.9-30.2zm224.1 134.2c0 0 3.1-28.9 6.3-57.7 3.1-28.9 6.3-57.7 6.3-57.7 0 0 1.7 7.5 4.2 18.8 2.5 11.3 5.9 26.4 9.1 41.5 3.3 15.1 6.5 30.2 8.9 41.5 2.3 11.3 3.9 18.8 3.9 18.8l39.7 5.9c0 0 3.4-6.8 8.4-17 5.1-10.3 11.9-23.9 18.7-37.5 6.8-13.6 13.7-27.1 18.9-37.3 5.2-10.2 8.7-16.9 8.7-16.9 0 0-4 28.7-8 57.4-4 28.7-8 57.5-8 57.5l39.6 6.8c0 0 1.7-11.6 4.3-29 1.3-8.7 2.9-18.8 4.5-29.7 1.6-10.9 3.4-22.5 5.1-34.1 1.7-11.5 3.5-23.1 5.1-34 1.6-10.9 3.1-21 4.4-29.7 2.6-17.4 4.4-29 4.4-29l-58.2-9.8c0 0-3.8 7.5-9.6 18.7-5.7 11.3-13.3 26.3-20.9 41.3-7.5 15-15 30.1-20.6 41.4-5.6 11.3-9.3 18.9-9.3 18.9 0 0-1.7-8.4-4.3-20.9-2.6-12.5-6.2-29.2-9.8-45.9-3.6-16.7-7.3-33.4-10.1-45.9-2.8-12.5-4.7-20.8-4.7-20.8l-58.3-7.4c0 0-1.2 11.7-2.9 29.2-0.9 8.8-1.9 19-3 30-1.1 10.9-2.2 22.6-3.4 34.3-1.1 11.6-2.3 23.3-3.4 34.3-1.1 10.9-2.1 21.1-2.9 29.9-1.8 17.5-2.9 29.2-2.9 29.2z"/>
	<path id="WILL(IA)M" class="s1" d="m682.6 0.2l-0.5 34.9q-13.4-0.2-20.4 4.5-7 4.8-7.1 13.9c0 0-0.1 9.2-0.2 23.1-0.2 13.8-0.3 32.3-0.5 50.7-0.1 18.5-0.3 36.9-0.4 50.8-0.1 13.8-0.2 23.1-0.2 23.1q-0.1 9.1 6.5 14 6.6 4.9 19.4 5.1l-0.5 34.9q-12.2-0.2-24-3.6-11.6-3.3-20.9-10-9.2-6.8-15.1-16.7-5.6-10.2-5.6-23.9c0 0 0-9.2 0-23.1 0-13.8-0.1-32.3-0.1-50.7 0-18.5 0-37-0.1-50.8 0-13.8 0-23.1 0-23.1q0-13.7 5.9-23.6 6.1-10.2 15.9-16.9 9.9-6.6 22.3-9.7 12.7-3.1 25.6-2.9zm255.8 49l2.7-34.8q12.9 1.2 25 5.7 12.3 4.4 21.5 12.1 9.2 7.8 14.1 18.6 5.2 10.5 3.9 24.1c0 0-0.9 9.2-2.2 23-1.2 13.8-3 32.1-4.7 50.5-1.7 18.3-3.5 36.7-4.8 50.5-1.3 13.7-2.1 22.9-2.1 22.9q-1.3 13.6-8.1 23.1-6.5 9.3-16.3 15-9.8 5.7-22 7.7-11.8 2.1-23.9 1l2.6-34.8q12.8 1.2 19.8-3 7.1-4.1 7.9-13.2c0 0 0.7-9.2 1.9-23 1.1-13.8 2.7-32.2 4.2-50.5 1.6-18.4 3.1-36.8 4.3-50.6 1.1-13.8 1.9-23 1.9-23q0.8-9.1-5.8-14.5-6.5-5.5-19.9-6.8z"/>
	<path id="Forma 1" class="s2" d="m1224 32c0-9.9 8.1-18 18-18h142c9.9 0 18 8.1 18 18v43c0 9.9-8.1 18-18 18h-142c-9.9 0-18-8.1-18-18z"/>
	<path id="InDev 0.0.1" fill-rule="evenodd" class="s3" d="m1237 42h3.8v23h-3.8zm20.5 12.8c0-3.3-1.8-5-4.6-5-2.8 0-4.6 1.7-4.6 5v10.2h-3.8v-18.2h3.8v2.1c1.2-1.5 3.2-2.4 5.4-2.4 4.3 0 7.5 2.7 7.5 7.8v10.7h-3.7zm27.1-1.2c0 7.1-4.9 11.5-12.3 11.5h-7.5v-23.1h7.5c7.4 0 12.3 4.5 12.3 11.6zm-12.3 8.4c5.5 0 8.4-3.1 8.4-8.4 0-5.3-2.9-8.5-8.4-8.5h-3.7v16.9zm22.6 3.4c-5.2 0-9.1-3.8-9.1-9.5 0-5.7 3.7-9.4 9.1-9.4 5.2 0 8.9 3.6 8.9 9 0 0.6 0 1.2-0.1 1.8h-14c0.3 3 2.4 4.9 5.2 4.9 2.3 0 3.6-1.2 4.3-2.6h4.1c-1 3.2-3.9 5.8-8.4 5.8zm-5.2-11.1h10.1c0-2.8-2.2-4.6-5.1-4.6-2.5 0-4.6 1.7-5 4.6zm18.5-7.5l5.1 14.9 5.2-14.9h4l-6.9 18.3h-4.6l-6.9-18.3zm31.5-6.3c6.8 0 8.6 5.3 8.6 12.2 0 7-1.8 12.3-8.6 12.3-6.7 0-8.6-5.3-8.6-12.3 0-6.9 1.9-12.2 8.6-12.2zm0 3.4c-4.4 0-4.9 4.2-4.9 8.8 0 4.7 0.5 8.8 4.9 8.8 4.4 0 4.9-4.1 4.9-8.8 0-4.6-0.5-8.8-4.9-8.8zm13.4 21.4c-1.3 0-2.4-1.1-2.4-2.4 0-1.4 1.1-2.5 2.4-2.5 1.4 0 2.4 1.1 2.4 2.5 0 1.3-1 2.4-2.4 2.4zm13.4-24.8c6.8 0 8.6 5.3 8.6 12.2 0 7-1.8 12.3-8.6 12.3-6.8 0-8.6-5.3-8.6-12.3 0-6.9 1.8-12.2 8.6-12.2zm0 3.4c-4.4 0-4.9 4.2-4.9 8.8 0 4.7 0.5 8.8 4.9 8.8 4.4 0 4.9-4.1 4.9-8.8 0-4.6-0.5-8.8-4.9-8.8zm13.4 21.4c-1.3 0-2.4-1.1-2.4-2.4 0-1.4 1.1-2.5 2.4-2.5 1.4 0 2.4 1.1 2.4 2.5 0 1.3-1 2.4-2.4 2.4zm7.4-21h-3.1v-3.4h6.9v24.2h-3.8z"/>
</svg>